<svg width="197" height="49" viewBox="0 0 197 49" fill="none" xmlns="http://www.w3.org/2000/svg">
<path d="M27.0273 14.9858C28.1422 16.5373 28.6989 18.3918 28.6989 20.5534C28.6989 22.7151 28.1365 24.571 27.0131 25.9229C26.3843 26.6816 25.4588 27.3753 24.2365 28.001C26.0933 28.6777 27.495 29.7493 28.4417 31.2173C29.3871 32.6867 29.8604 34.4676 29.8604 36.5613C29.8604 38.655 29.3206 40.6609 28.2397 42.3752C27.5515 43.5134 26.6924 44.4704 25.6609 45.2461C24.4993 46.1365 23.1273 46.7481 21.5475 47.0765C19.9663 47.4078 18.2523 47.572 16.404 47.572H0V11.0999H17.5924C22.0308 11.1664 25.1762 12.4603 27.0273 14.9844V14.9858ZM7.26163 17.4348V25.477H16.1101C17.6913 25.477 18.9743 25.1754 19.9606 24.5738C20.9469 23.9721 21.4401 22.9048 21.4401 21.3702C21.4401 19.6715 20.7887 18.5489 19.4844 18.0053C18.3597 17.6259 16.9268 17.4362 15.1831 17.4362H7.26163V17.4348ZM7.26163 31.5132V41.2371H16.1002C17.6786 41.2371 18.9079 41.0233 19.7868 40.5944C21.3808 39.8031 22.1791 38.2855 22.1791 36.0417C22.1791 34.1448 21.4062 32.8424 19.8589 32.1318C18.9969 31.7354 17.7831 31.5302 16.2217 31.5132H7.26163Z" fill="black"/>
<path d="M41.0008 47.572H33.9624V11.0999H41.0008V47.572Z" fill="black"/>
<path d="M53.3636 20.6015V36.8586C53.3636 38.3931 53.543 39.5482 53.9033 40.3226C54.542 41.6929 55.7954 42.3766 57.6634 42.3766C60.0557 42.3766 61.6949 41.4041 62.578 39.4576C63.0358 38.403 63.2662 37.0086 63.2662 35.2759V20.603H70.4034V47.5734H63.5615V43.7625C63.4951 43.8461 63.3312 44.0938 63.0683 44.5043C62.8055 44.9177 62.4946 45.2801 62.1329 45.5929C61.0321 46.5825 59.9695 47.2591 58.9437 47.6215C57.9164 47.9839 56.7139 48.1665 55.3348 48.1665C51.3613 48.1665 48.685 46.7311 47.3058 43.8616C46.5343 42.2776 46.1486 39.9446 46.1486 36.86V20.603H53.3607L53.3636 20.6015Z" fill="black"/>
<path d="M93.7781 21.148C95.656 21.9917 97.2062 23.321 98.4298 25.1372C99.532 26.7397 100.247 28.5984 100.575 30.7133C100.764 31.952 100.842 33.7357 100.807 36.0658H81.1992C81.308 38.7711 82.2463 40.668 84.014 41.7566C85.0893 42.4333 86.3837 42.7716 87.8956 42.7716C89.4994 42.7716 90.8022 42.3597 91.8041 41.5344C92.3509 41.0884 92.8342 40.4698 93.2539 39.6785H100.441C100.251 41.2795 99.3808 42.9047 97.8307 44.5525C95.4187 47.1756 92.0429 48.4865 87.702 48.4865C84.12 48.4865 80.959 47.3795 78.2205 45.1683C75.482 42.9556 74.1128 39.3571 74.1128 34.3699C74.1128 29.6983 75.3492 26.1154 77.822 23.6239C80.2934 21.131 83.5025 19.8838 87.4477 19.8838C89.7905 19.8838 91.9016 20.3057 93.7795 21.148H93.7781ZM83.2481 27.2394C82.2533 28.2671 81.6274 29.6587 81.373 31.4141H93.4997C93.3712 29.5426 92.7466 28.1213 91.6246 27.1516C90.5027 26.1834 89.1108 25.6978 87.4491 25.6978C85.6418 25.6978 84.2415 26.2117 83.2481 27.2394Z" fill="black"/>
<path d="M119.148 21.0361C120.415 21.7525 121.445 22.7476 122.235 24.0174V11.1494H129.373V47.572H122.531V43.8362C121.526 45.4372 120.381 46.5994 119.097 47.3242C117.813 48.049 116.216 48.4129 114.305 48.4129C111.16 48.4129 108.513 47.1374 106.364 44.5907C104.215 42.0411 103.141 38.7725 103.141 34.779C103.141 30.1768 104.198 26.5557 106.315 23.9169C108.431 21.2782 111.259 19.9574 114.798 19.9574C116.429 19.9574 117.877 20.3156 119.145 21.0347L119.148 21.0361ZM120.877 40.249C121.915 38.764 122.433 36.843 122.433 34.4831C122.433 31.1847 121.601 28.8263 119.939 27.4064C118.917 26.55 117.732 26.1196 116.382 26.1196C114.324 26.1196 112.813 26.8982 111.849 28.4583C110.886 30.0154 110.405 31.9506 110.405 34.2595C110.405 36.751 110.894 38.7413 111.875 40.2348C112.856 41.7269 114.341 42.4729 116.333 42.4729C118.325 42.4729 119.84 41.7311 120.877 40.2461V40.249Z" fill="black"/>
<path d="M137.384 44.4803C134.424 42.2054 132.943 38.7484 132.943 34.1137C132.943 29.4775 134.424 26.022 137.384 23.7457C140.345 21.4693 143.908 20.3312 148.076 20.3312C152.172 20.3312 155.723 21.4693 158.727 23.7457C161.73 26.022 163.232 29.4775 163.232 34.1137C163.232 38.7484 161.73 42.2054 158.727 44.4803C155.723 46.7566 152.172 47.8948 148.076 47.8948C143.908 47.8948 140.343 46.7566 137.384 44.4803ZM141.489 38.8404C143.035 39.9446 145.23 40.4981 148.076 40.4981C150.921 40.4981 153.112 39.9446 154.648 38.8404C156.182 37.7348 156.951 36.1508 156.951 34.0896C156.951 32.027 156.182 30.4401 154.648 29.326C153.112 28.2119 150.921 27.657 148.076 27.657C145.23 27.657 143.034 28.2134 141.489 29.326C139.945 30.4401 139.173 32.027 139.173 34.0896C139.173 36.1508 139.945 37.7348 141.489 38.8404Z" fill="black"/>
<path d="M164.785 25.5959V20.5733H168.539V15.8111H175.504V20.5733H179.876V25.5959H175.504V40.1244C175.504 41.23 175.644 41.9194 175.924 42.1898C176.204 42.463 177.06 42.5989 178.493 42.5989C178.706 42.5989 178.934 42.5947 179.172 42.5862C179.41 42.5777 179.644 42.5664 179.876 42.5494V47.8197L176.541 47.9429C173.215 48.0576 170.943 47.4814 169.725 46.2102C168.935 45.4019 168.539 44.1561 168.539 42.4744V25.5945H164.785V25.5959Z" fill="black"/>
<path d="M188.058 16.0333C192.477 16.0333 196.06 12.4441 196.06 8.01667C196.06 3.58918 192.477 0 188.058 0C183.638 0 180.056 3.58918 180.056 8.01667C180.056 12.4441 183.638 16.0333 188.058 16.0333Z" fill="#0095D6"/>
</svg>
