<svg width="193" height="159" viewBox="0 0 193 159" fill="none" xmlns="http://www.w3.org/2000/svg">
<path d="M136.916 66.2938L143.038 95.5021L143.682 95.0514C145.729 93.6241 148.55 94.1264 149.978 96.1735L153.424 101.117C154.851 103.165 154.349 105.986 152.302 107.414L145.808 111.94L150.729 141.134C151.086 143.242 150.189 145.364 148.438 146.59L144.592 149.271C141.879 151.163 138.127 150.261 136.559 147.35L104.266 89.051C84.0207 103.169 61.2494 115.71 43.9244 124.551L48.3519 150.825C48.5773 152.167 48.0092 153.524 46.887 154.299L44.4362 156.013C42.7037 157.219 40.3045 156.647 39.3091 154.787L27.4446 132.687C24.6463 134.026 22.2799 135.124 20.4488 135.969C19.1952 136.547 17.8243 136.636 16.5707 136.289C15.3171 135.946 14.1762 135.181 13.3827 134.049C11.8004 131.781 12.0728 128.706 14.0212 126.753C15.4485 125.325 17.2984 123.49 19.5192 121.325L2.88911 102.549C1.48527 100.967 1.78106 98.5258 3.51356 97.3191L5.96441 95.6054C7.08185 94.826 8.55142 94.7603 9.73459 95.4364L32.858 108.677C47.1453 95.4786 66.7849 78.4541 87.0349 64.3312L43.5018 13.8728C41.3045 11.3985 41.7647 7.56731 44.4784 5.67048L48.3237 2.99427C50.075 1.76884 52.3756 1.67024 54.2302 2.73134L79.9265 17.4458L86.4199 12.9197C88.467 11.4924 91.2887 11.9948 92.716 14.0419L96.1576 18.9811C97.5896 21.0329 97.0872 23.85 95.0354 25.282L94.3922 25.728L119.685 41.574L153.335 18.1125C168.35 7.64243 184.383 4.6892 189.144 11.5159C193.9 18.3426 185.585 32.3622 170.57 42.8323C170.57 42.8323 154.246 54.2133 136.921 66.2938H136.916Z" stroke="#0095D6" stroke-width="4" stroke-miterlimit="10"/>
</svg>
