<svg width="148" height="183" viewBox="0 0 148 183" fill="none" xmlns="http://www.w3.org/2000/svg">
<path d="M89.7864 169.309H83.3486V146.198C83.3486 136.749 91.1991 129.094 100.883 129.094H106.973C116.657 129.094 124.507 136.754 124.507 146.198V169.309H118.006" stroke="#0095D6" stroke-width="4" stroke-linecap="round" stroke-linejoin="round"/>
<path d="M73.5146 83.203C95.9382 83.203 114.116 65.0251 114.116 42.6015C114.116 20.1779 95.9382 2 73.5146 2C51.091 2 32.9131 20.1779 32.9131 42.6015C32.9131 65.0251 51.091 83.203 73.5146 83.203Z" stroke="#0095D6" stroke-width="4" stroke-miterlimit="10"/>
<path d="M40.1518 151.594C47.1763 151.594 52.8709 145.9 52.8709 138.875C52.8709 131.851 47.1763 126.156 40.1518 126.156C33.1272 126.156 27.4326 131.851 27.4326 138.875C27.4326 145.9 33.1272 151.594 40.1518 151.594Z" stroke="#0095D6" stroke-width="4" stroke-miterlimit="10"/>
<path d="M2 180.425V144.267C2 117.543 23.6646 95.8831 50.3836 95.8831L73.1822 116.506L96.978 95.8831C123.702 95.8831 145.362 117.548 145.362 144.267V180.425" stroke="#0095D6" stroke-width="4" stroke-miterlimit="10" stroke-linecap="round"/>
<path d="M39.521 124.636C39.521 124.636 38.646 110.748 43.1774 95.2476" stroke="#0095D6" stroke-width="4" stroke-miterlimit="10"/>
<path d="M104.516 127.124C104.516 127.124 105.391 113.236 100.859 97.7358" stroke="#0095D6" stroke-width="4" stroke-miterlimit="10"/>
</svg>
