<svg width="198" height="194" viewBox="0 0 198 194" fill="none" xmlns="http://www.w3.org/2000/svg">
<path d="M106.45 42.631C117.655 42.631 126.739 33.5355 126.739 22.3155C126.739 11.0956 117.655 2 106.45 2C95.2448 2 86.1611 11.0956 86.1611 22.3155C86.1611 33.5355 95.2448 42.631 106.45 42.631Z" stroke="#0095D6" stroke-width="4" stroke-miterlimit="10"/>
<path d="M63.9756 99.2819V81.1911C63.9756 67.8204 76.8105 56.9812 92.6468 56.9812L106.158 67.3014L120.259 56.9812C136.095 56.9812 148.93 67.8204 148.93 81.1911V99.2819" stroke="#0095D6" stroke-width="4" stroke-miterlimit="10" stroke-linecap="round"/>
<path d="M30.9512 191.085L49.5681 171.993C52.7317 168.748 57.0491 166.898 61.5737 166.848L127.817 166.113C130.133 166.086 132.359 165.188 134.045 163.599L193.87 107.219C196.317 104.913 195.669 100.866 192.627 99.4442L187.552 97.0706C181.13 94.0653 173.573 94.8505 167.908 99.1193L139.367 120.604" stroke="#0095D6" stroke-width="4" stroke-linecap="round" stroke-linejoin="round"/>
<path d="M2 149.028L34.3576 118.618C34.3576 118.618 60.7529 95.884 89.9875 118.05H114.445C122.881 118.05 130.259 123.749 132.399 131.921L133.31 135.4C133.941 137.801 132.133 140.152 129.65 140.152L80.8976 140.215" stroke="#0095D6" stroke-width="4" stroke-linecap="round" stroke-linejoin="round"/>
</svg>
